<svg xmlns="http://www.w3.org/2000/svg" width="231.606" height="41.5" viewBox="0 0 231.606 41.5">
    <defs>
        <style>
            .cls-1{fill:#1a1a2e}
        </style>
    </defs>
    <g id="Logo_Ed_Controls" data-name="Logo Ed Controls" transform="translate(-54.421 -91.137)">
        <g id="Group_1" data-name="Group 1" transform="translate(128.999 105.695)">
            <path id="Path_1" d="M310.285 158.634a9.473 9.473 0 0 1-3.723-3.53 10.3 10.3 0 0 1 0-10.208 9.493 9.493 0 0 1 3.723-3.53 11.052 11.052 0 0 1 5.322-1.273 11.176 11.176 0 0 1 4.5.877 9.011 9.011 0 0 1 3.379 2.518l-2.846 2.626a6.119 6.119 0 0 0-4.817-2.243 6.4 6.4 0 0 0-3.174.779 5.553 5.553 0 0 0-2.175 2.176 6.857 6.857 0 0 0 0 6.35 5.536 5.536 0 0 0 2.175 2.173 6.39 6.39 0 0 0 3.174.781 6.084 6.084 0 0 0 4.817-2.271l2.846 2.628a8.853 8.853 0 0 1-3.393 2.544 11.264 11.264 0 0 1-4.515.877 10.993 10.993 0 0 1-5.293-1.274z" class="cls-1" data-name="Path 1" transform="translate(-305.208 -140.093)"/>
            <path id="Path_2" d="M376.385 158.621a9.539 9.539 0 0 1-3.749-3.545 10.191 10.191 0 0 1 0-10.153 9.542 9.542 0 0 1 3.749-3.544 11.847 11.847 0 0 1 10.742 0 9.771 9.771 0 0 1 0 17.241 11.859 11.859 0 0 1-10.742 0zm8.444-3.272a5.574 5.574 0 0 0 2.148-2.173 6.848 6.848 0 0 0 0-6.35 5.592 5.592 0 0 0-2.148-2.176 6.417 6.417 0 0 0-6.131 0 5.6 5.6 0 0 0-2.149 2.176 6.857 6.857 0 0 0 0 6.35 5.577 5.577 0 0 0 2.149 2.173 6.407 6.407 0 0 0 6.131 0z" class="cls-1" data-name="Path 2" transform="translate(-351.632 -140.093)"/>
            <path id="Path_3" d="M470.574 141.2v19.157h-3.64l-9.551-11.631v11.631h-4.378V141.2h3.667l9.523 11.631V141.2z" class="cls-1" data-name="Path 3" transform="translate(-409.054 -140.869)"/>
            <path id="Path_4" d="M526.223 144.811h-6.13V141.2h16.694v3.613h-6.131v15.544h-4.434z" class="cls-1" data-name="Path 4" transform="translate(-456.191 -140.869)"/>
            <path id="Path_5" d="M596.44 160.355l-3.694-5.336h-4.078v5.336h-4.434V141.2h8.289a10.635 10.635 0 0 1 4.421.849 6.586 6.586 0 0 1-.04 12.151l4.3 6.157zm-1.122-14.683a4.665 4.665 0 0 0-3.037-.861h-3.613v6.678h3.613a4.615 4.615 0 0 0 3.037-.875 3.452 3.452 0 0 0 0-4.941z" class="cls-1" data-name="Path 5" transform="translate(-501.258 -140.869)"/>
            <path id="Path_6" d="M652.924 158.621a9.529 9.529 0 0 1-3.75-3.545 10.176 10.176 0 0 1 0-10.153 9.533 9.533 0 0 1 3.75-3.544 11.844 11.844 0 0 1 10.74 0 9.771 9.771 0 0 1 0 17.241 11.856 11.856 0 0 1-10.74 0zm8.441-3.272a5.588 5.588 0 0 0 2.15-2.173 6.866 6.866 0 0 0 0-6.35 5.606 5.606 0 0 0-2.15-2.176 6.415 6.415 0 0 0-6.129 0 5.581 5.581 0 0 0-2.147 2.176 6.848 6.848 0 0 0 0 6.35 5.563 5.563 0 0 0 2.147 2.173 6.4 6.4 0 0 0 6.129 0z" class="cls-1" data-name="Path 6" transform="translate(-545.934 -140.093)"/>
            <path id="Path_7" d="M729.541 141.2h4.434v15.544h9.606v3.613h-14.04z" class="cls-1" data-name="Path 7" transform="translate(-603.355 -140.869)"/>
            <path id="Path_8" d="M783.1 159.291a10.289 10.289 0 0 1-3.408-1.6l1.506-3.34a10.19 10.19 0 0 0 2.928 1.45 10.954 10.954 0 0 0 3.393.548 5.425 5.425 0 0 0 2.792-.561 1.7 1.7 0 0 0 .9-1.491 1.426 1.426 0 0 0-.536-1.137 4.022 4.022 0 0 0-1.367-.725q-.838-.273-2.259-.6a31.116 31.116 0 0 1-3.585-1.04 5.826 5.826 0 0 1-2.4-1.67 4.511 4.511 0 0 1-1-3.064 5.337 5.337 0 0 1 .9-3.024 6.087 6.087 0 0 1 2.723-2.148 11.105 11.105 0 0 1 4.447-.795 14.73 14.73 0 0 1 3.585.438 10.637 10.637 0 0 1 3.067 1.258l-1.369 3.367a10.689 10.689 0 0 0-5.308-1.5 4.986 4.986 0 0 0-2.751.6 1.838 1.838 0 0 0-.889 1.588 1.551 1.551 0 0 0 1.026 1.464 16.032 16.032 0 0 0 3.133.944 31.43 31.43 0 0 1 3.585 1.04 5.944 5.944 0 0 1 2.4 1.642 4.4 4.4 0 0 1 1 3.039 5.252 5.252 0 0 1-.914 3 6.181 6.181 0 0 1-2.752 2.147 11.229 11.229 0 0 1-4.462.793 15.614 15.614 0 0 1-4.385-.623z" class="cls-1" data-name="Path 8" transform="translate(-638.593 -140.093)"/>
        </g>
        <g id="Group_2" data-name="Group 2" transform="translate(54.421 91.137)">
            <path id="Path_9" d="M74.479 132.55a16.721 16.721 0 0 0 10.3-3.5l.339-.263-3.728-6.314-.44.4a9.663 9.663 0 0 1-15.337-3.332h22.1a16.864 16.864 0 0 0 30.981 4.783 17.566 17.566 0 0 0 2.367-9.739l-.012-23.438H114l-.009 22.6c-.093 2.55-.273 4.834-1.5 6.928a9.675 9.675 0 0 1-16.677-9.812 10.858 10.858 0 0 1 9.344-5.562 13.271 13.271 0 0 1 5.8 1.442l.7.339-.015-7.015-.315-.12a18.69 18.69 0 0 0-6.605-1.22A17.534 17.534 0 0 0 89.6 107.2c-.1.165-.183.329-.276.494a16.861 16.861 0 0 0-31.4 4.7h-3.503v7.141h3.632a16.9 16.9 0 0 0 16.426 13.015zm0-26.549a9.692 9.692 0 0 1 9.1 6.389H65.38a9.692 9.692 0 0 1 9.099-6.39z" class="cls-1" data-name="Path 9" transform="translate(-54.421 -91.137)"/>
        </g>
    </g>
</svg>
